. 
 
http://www.torrenting.com          :     Once & For all ;)


               www . Torrenting . Com 

(((((((((((((= Enjoy No RAR releases =))))))))))))))))))))


...................................NFO:....................................

.[IMG]http://img706.imageshack.us/img706/7315/mainphpg2v.jpg[/IMG]


[color=blue][size=5][b]Pressed.2011.DVDRip.XVID.AC3.HQ.Hive-CM8[/b][/size][/color]


[b]Thx Hive

CM8 Doing It Right The First Time :D

Source: DVD-R

Encode:
DVD itself was ok, just heavily interlaced and unfortunately 4:3 and not widescreen and only stereo audio not 5:1.
Colours were also a bit off.
Removed that interlaced, fixed the colours, added sharpness and denoise
still got nice
enjoy

Video: 656x480 @bitrate 1700 2pass
Audio: English AC3 2.0 Stereo
Sample: yes included[/b]


[url]http://www.imdb.com/title/tt1716759/[/url]


General
Complete name                  : Pressed.2011.DVDRip.XVID.AC3.HQ.Hive-CM8.avi
Format                         : AVI
Format/Info                    : Audio Video Interleave
File size                      : 1.43 GiB
Duration                       : 1h 45mn
Overall bit rate               : 1 938 Kbps
Writing application            : Nandub v1.0rc2
Writing library                : Nandub build 1853/release

Video
ID                             : 0
Format                         : MPEG-4 Visual
Format profile                 : Advanced Simple@L5
Format settings, BVOP          : 2
Format settings, QPel          : Yes
Format settings, GMC           : No warppoints
Format settings, Matrix        : Default (H.263)
Muxing mode                    : Packed bitstream
Codec ID                       : XVID
Codec ID/Hint                  : XviD
Duration                       : 1h 45mn
Bit rate                       : 1 702 Kbps
Width                          : 656 pixels
Height                         : 480 pixels
Display aspect ratio           : 4:3
Frame rate                     : 29.970 fps
Color space                    : YUV
Chroma subsampling             : 4:2:0
Bit depth                      : 8 bits
Scan type                      : Progressive
Compression mode               : Lossy
Bits/(Pixel*Frame)             : 0.180
Stream size                    : 1.25 GiB (88%)
Writing library                : XviD 1.2.1 (UTC 2008-12-04)

Audio
ID                             : 1
Format                         : AC-3
Format/Info                    : Audio Coding 3
Mode extension                 : CM (complete main)
Codec ID                       : 2000
Duration                       : 1h 45mn
Bit rate mode                  : Constant
Bit rate                       : 224 Kbps
Channel(s)                     : 2 channels
Channel positions              : Front: L R
Sampling rate                  : 48.0 KHz
Bit depth                      : 16 bits
Compression mode               : Lossy
Stream size                    : 168 MiB (12%)
Alignment                      : Split accross interleaves
Interleave, duration           : 33 ms (1.00 video frame)
Interleave, preload duration   : 500 ms


Plot:

Two joyriders Jesse and Sam discover something hidden in the back seat of the car 
that could change their lives forever...

Cast:

Luke Goss	... 	Brian
Tyler Johnston	... 	Jesse
Michael Eklund	... 	Jimmy
Jeffrey Ballard	... 	Sam
Craig Stanghetta ... 	Joey 'The Boss'


[img]http://img69.imageshack.us/img69/1272/32127408.png[/img]
[img]http://img864.imageshack.us/img864/5626/prpr.png[/img]
[img]http://img861.imageshack.us/img861/3492/prprpr.png[/img]
[img]http://img27.imageshack.us/img27/7558/prprprpprr.png[/img]
[img]http://img198.imageshack.us/img198/1332/prprprpr.png[/img]




Greetz

ViSiON,SPK,SiC,SANTi,3LT0N,YanKeeS,MAGNET,THC,T0XiC,LKRG,Feel-Free,FLAWL3SS,
WBZ,BHRG,NOVA,D2U,Rapeseed,SAFC,goldadvance,KaN1vE,Unevano,Pinnz,Wayne
Mr Hive,and most P2P groups
Great Work Guys :D

LOOKING FOR ANYTHING YOU WANT TO LOOK AND SOUND BETTER

CM8@hushmail.com